# xmcd
#
# Track frame offsets:
#	150
#	15496
#	28339
#	41638
#	57918
#	73024
#	88740
#	105213
#	119424
#	142041
#	154310
#	169145
#	184018
#	202110
#	214501
#	227433
#	241930
#	255995
#	270572
#
# Disc length: 3794 seconds
# Revision: 3
# Processed by: cddbd v1.5.2PL0 Copyright (c) Steve Scherf et al.
# Submitted via: dBpowerAMP V12.0
#
DISCID=060ed013
DTITLE=Various Artist - So Country 2017
DYEAR=2017
DGENRE=Country
TTITLE0=Kenny Chesney - Noise
TTITLE1=Catherine Britt - F U Cancer
TTITLE2=Alan Jackson - Love Is Hard
TTITLE3=Wynonna - Things That I Lean On
TTITLE4=Cam - My Mistake
TTITLE5=David Nail - Good at Tonight
TTITLE6=Chase Rice - Everybody We Know Does
TTITLE7=Drake White - Livin' The Dream
TTITLE8=O'Shea - The Truth Walks Slowly (In the Countryside)
TTITLE9=Dolly Parton - Pure And Simple
TTITLE10=Missy Lancaster - That's What I'm Talking About
TTITLE11=Dylan Scott - My Girl
TTITLE12=Miranda Lambert - Vice
TTITLE13=Kane Brown - Thunder In The Rain
TTITLE14=Mo Pitney - Everywhere
TTITLE15=Old Dominion - Song For Another Time
TTITLE16=James Barker Band - Just Sayin'
TTITLE17=Mae Valley - Glitter
TTITLE18=Kirsty Lee Akers - Wake Me Up When You're Sober
EXTD=
EXTT0=
EXTT1=
EXTT2=
EXTT3=
EXTT4=
EXTT5=
EXTT6=
EXTT7=
EXTT8=
EXTT9=
EXTT10=
EXTT11=
EXTT12=
EXTT13=
EXTT14=
EXTT15=
EXTT16=
EXTT17=
EXTT18=
PLAYORDER=
